<?xml version="1.0" encoding="utf-8"?>
<svg xmlns="http://www.w3.org/2000/svg" viewBox="0 0 1200 630" width="1200px" height="630px" xmlns:bx="https://boxy-svg.com"><defs><linearGradient id="a" x1="-.36" y1="554.89" x2="34.68" y2="517.31" gradientTransform="rotate(-19.51 -1422.298 31.818)" gradientUnits="userSpaceOnUse"><stop offset="0.26" stop-color="#6eba51"/><stop offset="0.37" stop-color="#72bb50"/><stop offset="0.48" stop-color="#7dbf4e"/><stop offset="0.59" stop-color="#90c64b"/><stop offset="0.69" stop-color="#abd047"/><stop offset="0.79" stop-color="#cedc41"/><stop offset="0.89" stop-color="#f7eb3a"/><stop offset="0.91" stop-color="#ffee39"/></linearGradient><linearGradient id="b" x1="91.48" y1="52.28" x2="134.7" y2="5.95" gradientUnits="userSpaceOnUse"><stop offset="0" stop-color="#001539"/><stop offset="0.07" stop-color="#001c42"/><stop offset="0.18" stop-color="#002e5b"/><stop offset="0.32" stop-color="#004b84"/><stop offset="0.46" stop-color="#006cb1"/><stop offset="0.53" stop-color="#0871aa"/><stop offset="0.63" stop-color="#1d8098"/><stop offset="0.76" stop-color="#3f997a"/><stop offset="0.91" stop-color="#6eba51"/></linearGradient></defs><rect width="1200" height="630" style="fill: rgb(247, 248, 250);"/><title>logo</title><g transform="matrix(1, 0, 0, 1, -7.518341, -53.721481)"><g class="a" style="isolation: isolate;" transform="matrix(2.109112, 0, 0, 2.109112, 367.99765, 214.809982)"><path class="b" d="M105.9 1.1a1.43 1.43 0 0 1 2.52.09c9.11 19.19 1.38 32.69 1.38 32.69-3.81 8-9.91 13-17.92 14.78a4.73 4.73 0 0 1-5.6-5.66v-.09c.31-.98 5-16.91 19.62-41.81z" style="fill: url(&quot;#a&quot;); mix-blend-mode: multiply;"/><path class="c" d="M127 .92a1.76 1.76 0 0 1 2.89 1.15C132.59 28.12 118 40.63 118 40.63c-7.72 7.72-16.85 11-26.92 9.8a5.83 5.83 0 0 1-4.18-8.88l.07-.1C87.75 40.43 99.78 23.81 127 .92z" style="fill: url(&quot;#b&quot;); opacity: 0.87;"/><g class="d" style="mix-blend-mode: multiply;"><path class="e" d="M89 63.3a10.29 10.29 0 0 0-8.11 3.7l-.7-2.83c-.32-1.3-4.74-1.35-4.74.42v19.28c0 1.86 5.48 1.86 5.48 0V71.62a9.4 9.4 0 0 1 7-3.11c1.64-.05 2.75-5.25 1.07-5.21zm-26.88-.19C55 63.12 51.36 67.39 51.36 74c0 7.89 5.71 11.19 11.42 11.19a13.39 13.39 0 0 0 7.2-2c1.3-.84 1.3-4.64-.42-3.9a15.66 15.66 0 0 1-6.36 1.67c-3.25 0-6.27-1.58-6.36-4.88a27.54 27.54 0 0 0 3.9.28c5.85 0 11.52-1.58 11.52-3.76-.01-6.14-3.4-9.48-10.18-9.48zm-1.67 9.24a30.17 30.17 0 0 1-3.48-.19c0-3.58 2.41-4.92 5.39-4.92 3.25 0 5 1.53 5 3.81-.08.7-3.09 1.31-6.95 1.31zm65.19 7.8a1.35 1.35 0 0 1-.42.09c-.46 0-.7-.37-.7-1V63.72c0-2.18-5.48.09-5.48 2.32v14.58c0 3.25 1.58 4.6 3.67 4.6a6.9 6.9 0 0 0 2.93-.7c1.91-.97 1.91-5.2-.04-4.36zm-114.88-17C3.67 63.12 0 67.39 0 74c0 7.89 5.71 11.19 11.42 11.19a13.39 13.39 0 0 0 7.2-2c1.3-.84 1.3-4.64-.42-3.9a15.65 15.65 0 0 1-6.36 1.67c-3.25 0-6.27-1.58-6.36-4.88a27.53 27.53 0 0 0 3.9.28c5.85 0 11.52-1.58 11.52-3.76 0-6.14-3.39-9.48-10.17-9.48zm-1.71 9.21a30.18 30.18 0 0 1-3.48-.19C5.62 68.6 8 67.25 11 67.25c3.25 0 5 1.53 5 3.81-.07.69-3.09 1.3-6.95 1.3zm143.62 7.71a2.81 2.81 0 0 1-1 .19c-.88 0-1.35-.7-1.35-2.6v-5.72c0-6.59-3.62-8.82-9.29-8.82-4.69 0-7.43.93-9.38 2.55-1.53 1.21-1.21 4.69.37 3.71a14.66 14.66 0 0 1 7.34-1.9c3.9 0 5.53 1.3 5.53 5.15v.23a14.49 14.49 0 0 0-6.55-1.21c-5 0-8.17 2.69-8.17 6.83s3 6.78 7.66 6.78a11.09 11.09 0 0 0 7.62-2.69 3.75 3.75 0 0 0 3.76 2.6 9.68 9.68 0 0 0 3.48-.79c1.98-.83 1.98-5.06-.02-4.31zm-7.8-1.49a7.13 7.13 0 0 1-5.57 2.37c-2.69 0-3.67-1.25-3.67-2.6s1.07-2.69 3.95-2.69c2.69 0 4.46.46 5.29 1.07zm-29.76-17.41a7.3 7.3 0 0 0-6 3.3 14.46 14.46 0 0 0-6.69-1.39c-6.36 0-10.12 2.69-10.12 7.24a6.23 6.23 0 0 0 3.2 5.62 4.59 4.59 0 0 0-3.16 4.36 3.45 3.45 0 0 0 1.76 3.16 5.32 5.32 0 0 0-1.76 4.09c0 3.9 3.16 7.06 10.63 7.06 6.64 0 10.17-3.2 10.17-8 0-5.57-6.73-5.8-11.47-6-2.18 0-3.85-.33-3.85-1.77 0-.79.56-1.3 1.39-1.67a17.18 17.18 0 0 0 3.2.28c6.45 0 10.12-2.65 10.12-7.15a6.26 6.26 0 0 0-1-3.62 5.84 5.84 0 0 1 2.74-.7c1.67.02 2.51-4.86.84-4.81zM99 84.62c.37 0 1.49 0 2.28.09 3.34.09 6.45.09 6.45 2.51 0 2.09-1.86 3.44-4.74 3.44-3.16 0-5.15-1.35-5.15-3.48A2.88 2.88 0 0 1 99 84.62zm3.44-11.1c-2.93 0-4.64-1.16-4.64-3.2s1.72-3.3 4.64-3.3 4.69 1.16 4.69 3.3-1.73 3.2-4.7 3.2zm-54.8 6.83a2.47 2.47 0 0 1-1.07.23c-.93 0-1.39-.65-1.39-2v-7.66c0-4.88-2.83-7.8-7.48-7.8a11.58 11.58 0 0 0-8.27 3.34l-.74-2.37c-.46-1.25-4.55-1.39-4.55.37v19.41c0 1.86 5.43 1.86 5.43 0V71.06c2-2.28 4-3.16 5.85-3.16 2.79 0 4.32 1.49 4.32 4.92v6.59c0 4.5 1.86 6 4.27 6a10.62 10.62 0 0 0 3.62-.79c1.96-.79 1.87-5.2.01-4.27zm122.58-17.23a11.14 11.14 0 0 0-7.62 2.83l-.7-1.86c-.42-1.3-4.55-1.39-4.55.37v28.8c0 1.81 5.48 1.81 5.48 0v-10.5a11.5 11.5 0 0 0 7.38 2.46c5 0 8.27-4.32 8.27-11s-3.29-11.1-8.26-11.1zm-2.37 17.37a7.56 7.56 0 0 1-5-2.18v-8.13a7.23 7.23 0 0 1 5-2.32c3.39 0 5.15 2.18 5.15 6.36s-1.76 6.26-5.14 6.26zm27.77-17.19a10.29 10.29 0 0 0-8.08 3.7l-.7-2.83c-.32-1.3-4.74-1.35-4.74.42v19.28c0 1.86 5.48 1.86 5.48 0V71.62a9.4 9.4 0 0 1 7-3.11c1.65-.05 2.76-5.25 1.04-5.21zm13.38-.23c-6.92 0-11 4.13-11 11.14s4 11.05 11 11.05 11-4.09 11-11.05-4-11.14-11-11.14zm0 18.11c-3.48 0-5.53-2.51-5.53-7s2-7.06 5.53-7.06 5.53 2.51 5.53 7.06-2.01 7-5.53 7z" style="fill: rgb(0, 108, 177);"/></g></g><path d="M 163.07 480.89 L 173.51 480.89 Q 177.83 480.89 180.11 482.93 Q 182.39 484.97 182.39 488.73 Q 182.39 492.93 179.89 495.23 Q 177.39 497.53 172.67 497.53 L 166.39 497.53 L 166.39 493.17 L 172.91 493.17 Q 175.23 493.17 176.23 492.25 Q 177.23 491.33 177.23 489.21 Q 177.23 487.09 176.25 486.17 Q 175.27 485.25 172.95 485.25 L 166.39 485.25 L 168.03 483.69 L 168.03 508.89 L 163.07 508.89 Z M 170.79 496.29 L 175.75 496.01 L 182.51 508.89 L 176.75 508.89 Z M 193.43 501.53 Q 193.43 503.45 194.19 504.33 Q 194.95 505.21 196.67 505.21 Q 198.47 505.21 199.93 504.09 Q 201.39 502.97 203.47 500.09 L 203.99 502.77 Q 202.35 505.93 200.07 507.61 Q 197.79 509.29 194.99 509.29 Q 191.99 509.29 190.33 507.49 Q 188.67 505.69 188.67 502.33 L 188.67 486.89 L 193.43 486.89 L 193.43 501.53 Z M 207.07 508.89 L 203.27 508.89 L 202.31 502.65 L 202.31 486.89 L 207.07 486.89 Z M 214.99 503.17 Q 218.91 504.93 222.79 504.93 Q 225.19 504.93 226.23 504.35 Q 227.27 503.77 227.27 502.73 Q 227.27 501.89 226.67 501.35 Q 226.07 500.81 225.15 500.51 Q 224.23 500.21 222.59 499.85 Q 220.23 499.33 218.69 498.71 Q 217.15 498.09 216.03 496.79 Q 214.91 495.49 214.91 493.29 Q 214.91 490.13 217.21 488.31 Q 219.51 486.49 223.59 486.49 Q 225.47 486.49 227.43 486.85 Q 229.39 487.21 231.31 487.93 L 231.31 492.33 Q 229.39 491.57 227.49 491.21 Q 225.59 490.85 223.91 490.85 Q 221.71 490.85 220.75 491.45 Q 219.79 492.05 219.79 493.09 Q 219.79 494.01 220.41 494.57 Q 221.03 495.13 221.97 495.43 Q 222.91 495.73 224.55 496.09 Q 226.95 496.65 228.49 497.23 Q 230.03 497.81 231.11 499.09 Q 232.19 500.37 232.19 502.57 Q 232.19 505.73 229.83 507.51 Q 227.47 509.29 223.15 509.29 Q 221.07 509.29 219.01 508.87 Q 216.95 508.45 214.99 507.57 L 214.99 503.17 Z M 252.39 509.29 Q 248.19 509.29 246.05 507.11 Q 243.91 504.93 243.91 501.37 L 243.91 489.45 L 246.19 490.89 L 239.19 490.89 L 239.19 487.81 L 246.15 486.45 L 243.55 489.13 L 244.83 481.97 L 248.71 481.97 L 248.71 488.57 L 246.43 486.89 L 258.07 486.89 L 258.07 490.89 L 246.43 490.89 L 248.71 489.45 L 248.71 500.69 Q 248.71 502.93 249.73 503.93 Q 250.75 504.93 253.19 504.93 Q 255.67 504.93 258.07 503.97 L 258.07 508.25 Q 256.71 508.77 255.25 509.03 Q 253.79 509.29 252.39 509.29 Z M 291.47 503.25 Q 293.67 504.05 295.53 504.39 Q 297.39 504.73 299.23 504.73 Q 302.23 504.73 303.49 503.85 Q 304.75 502.97 304.75 501.41 Q 304.75 500.13 304.01 499.33 Q 303.27 498.53 302.17 498.09 Q 301.07 497.65 299.11 497.13 Q 296.43 496.37 294.81 495.63 Q 293.19 494.89 292.01 493.31 Q 290.83 491.73 290.83 489.01 Q 290.83 484.97 293.45 482.73 Q 296.07 480.49 300.79 480.49 Q 302.75 480.49 304.75 480.89 Q 306.75 481.29 308.51 482.05 L 308.51 486.85 Q 306.27 485.85 304.41 485.45 Q 302.55 485.05 300.83 485.05 Q 298.23 485.05 297.11 485.99 Q 295.99 486.93 295.99 488.53 Q 295.99 489.97 296.77 490.83 Q 297.55 491.69 298.69 492.15 Q 299.83 492.61 301.87 493.17 Q 304.43 493.85 306.03 494.55 Q 307.63 495.25 308.77 496.79 Q 309.91 498.33 309.91 500.97 Q 309.91 504.97 307.13 507.13 Q 304.35 509.29 299.35 509.29 Q 297.59 509.29 295.53 508.99 Q 293.47 508.69 291.47 508.09 L 291.47 503.25 Z M 316.31 480.89 L 326.19 480.89 Q 331.39 480.89 334.11 484.27 Q 336.83 487.65 336.83 494.09 Q 336.83 501.29 333.89 505.09 Q 330.95 508.89 325.35 508.89 L 316.31 508.89 Z M 319.55 504.49 L 325.55 504.49 Q 327.79 504.49 329.13 503.57 Q 330.47 502.65 331.07 500.55 Q 331.67 498.45 331.67 494.89 Q 331.67 491.33 331.07 489.23 Q 330.47 487.13 329.15 486.19 Q 327.83 485.25 325.59 485.25 L 319.55 485.25 L 321.27 483.57 L 321.27 506.21 Z M 348.47 494.29 L 356.39 480.89 L 362.11 480.89 L 352.59 496.01 L 352.59 492.73 L 362.43 508.89 L 356.71 508.89 Z M 341.99 480.89 L 346.95 480.89 L 346.95 508.89 L 341.99 508.89 Z M 344.43 492.21 L 351.27 492.21 L 351.27 496.53 L 344.43 496.53 Z M 399.91 509.29 Q 396.63 509.29 394.89 507.67 Q 393.15 506.05 393.15 503.13 Q 393.15 499.21 396.47 497.19 Q 399.79 495.17 407.03 495.17 L 407.07 498.33 Q 402.27 498.33 400.17 499.27 Q 398.07 500.21 398.07 502.29 Q 398.07 503.61 398.89 504.35 Q 399.71 505.09 401.39 505.09 Q 402.99 505.09 404.19 504.43 Q 405.39 503.77 406.05 502.59 Q 406.71 501.41 406.71 499.89 L 406.71 494.81 Q 406.71 492.61 405.67 491.63 Q 404.63 490.65 402.35 490.65 Q 400.55 490.65 398.81 491.07 Q 397.07 491.49 395.19 492.45 L 395.19 488.21 Q 399.59 486.49 403.31 486.49 Q 407.19 486.49 409.33 488.47 Q 411.47 490.45 411.47 493.97 L 411.47 504.49 L 411.15 500.93 L 412.63 508.89 L 407.95 508.89 L 406.95 503.45 L 407.83 504.05 Q 406.71 506.69 404.75 507.99 Q 402.79 509.29 399.91 509.29 Z M 432.87 494.25 Q 432.87 492.33 432.11 491.45 Q 431.35 490.57 429.63 490.57 Q 427.83 490.57 426.37 491.69 Q 424.91 492.81 422.83 495.69 L 422.31 493.01 Q 423.95 489.85 426.23 488.17 Q 428.51 486.49 431.31 486.49 Q 434.31 486.49 435.97 488.29 Q 437.63 490.09 437.63 493.45 L 437.63 508.89 L 432.87 508.89 L 432.87 494.25 Z M 419.23 486.89 L 423.03 486.89 L 423.99 493.13 L 423.99 508.89 L 419.23 508.89 Z M 452.23 509.29 Q 448.31 509.29 446.17 506.35 Q 444.03 503.41 444.03 498.09 Q 444.03 492.57 446.17 489.53 Q 448.31 486.49 452.23 486.49 Q 454.67 486.49 456.45 487.73 Q 458.23 488.97 459.23 491.33 L 458.51 492.09 L 458.51 479.29 L 463.27 479.29 L 463.27 508.89 L 459.47 508.89 L 458.43 503.01 L 459.47 503.57 Q 458.55 506.37 456.69 507.83 Q 454.83 509.29 452.23 509.29 Z M 453.67 505.01 Q 456.31 505.01 457.41 503.43 Q 458.51 501.85 458.51 498.09 Q 458.51 494.13 457.41 492.45 Q 456.31 490.77 453.67 490.77 Q 451.11 490.77 450.03 492.35 Q 448.95 493.93 448.95 497.69 Q 448.95 501.65 450.03 503.33 Q 451.11 505.01 453.67 505.01 Z M 510.71 492.41 Q 510.71 488.53 509.43 486.79 Q 508.15 485.05 505.43 485.05 Q 503.35 485.05 502.09 486.05 Q 500.83 487.05 500.27 489.21 Q 499.71 491.37 499.71 494.93 Q 499.71 498.49 500.29 500.63 Q 500.87 502.77 502.21 503.73 Q 503.55 504.69 505.87 504.69 Q 507.91 504.69 510.01 503.97 Q 512.11 503.25 514.07 501.89 L 514.07 506.69 Q 511.91 507.93 509.63 508.61 Q 507.35 509.29 505.11 509.29 Q 501.79 509.29 499.41 507.69 Q 497.03 506.09 495.79 503.05 Q 494.55 500.01 494.55 495.73 Q 494.55 490.93 495.89 487.51 Q 497.23 484.09 499.75 482.29 Q 502.27 480.49 505.79 480.49 Q 508.79 480.49 511.09 481.91 Q 513.39 483.33 514.63 486.01 Q 515.87 488.69 515.87 492.41 L 510.71 492.41 Z M 530.35 509.29 Q 525.87 509.29 523.37 506.47 Q 520.87 503.65 520.87 498.53 Q 520.87 492.81 523.57 489.65 Q 526.27 486.49 531.15 486.49 Q 535.67 486.49 538.17 489.31 Q 540.67 492.13 540.67 497.25 Q 540.67 502.97 537.97 506.13 Q 535.27 509.29 530.35 509.29 Z M 530.75 504.93 Q 532.59 504.93 533.65 504.23 Q 534.71 503.53 535.21 501.99 Q 535.71 500.45 535.71 497.85 Q 535.71 495.25 535.21 493.73 Q 534.71 492.21 533.65 491.53 Q 532.59 490.85 530.75 490.85 Q 528.95 490.85 527.87 491.55 Q 526.79 492.25 526.31 493.77 Q 525.83 495.29 525.83 497.93 Q 525.83 500.53 526.31 502.05 Q 526.79 503.57 527.87 504.25 Q 528.95 504.93 530.75 504.93 Z M 562.67 493.97 Q 562.67 492.17 562.29 491.37 Q 561.91 490.57 560.87 490.57 Q 559.91 490.57 559.19 491.29 Q 558.47 492.01 557.83 493.69 L 557.39 490.89 Q 558.19 488.73 559.53 487.61 Q 560.87 486.49 562.63 486.49 Q 564.79 486.49 565.93 488.17 Q 567.07 489.85 567.07 493.17 L 567.07 508.89 L 562.67 508.89 L 562.67 493.97 Z M 545.71 486.89 L 549.23 486.89 L 550.11 491.53 L 550.11 508.89 L 545.71 508.89 Z M 554.47 493.93 Q 554.47 492.25 554.07 491.45 Q 553.67 490.65 552.83 490.65 Q 551.95 490.65 551.19 491.47 Q 550.43 492.29 549.75 494.13 L 549.03 492.29 Q 549.95 489.49 551.39 487.99 Q 552.83 486.49 554.51 486.49 Q 556.31 486.49 557.31 488.19 Q 558.31 489.89 558.31 493.17 L 558.31 508.89 L 554.47 508.89 L 554.47 493.93 Z M 588.27 493.97 Q 588.27 492.17 587.89 491.37 Q 587.51 490.57 586.47 490.57 Q 585.51 490.57 584.79 491.29 Q 584.07 492.01 583.43 493.69 L 582.99 490.89 Q 583.79 488.73 585.13 487.61 Q 586.47 486.49 588.23 486.49 Q 590.39 486.49 591.53 488.17 Q 592.67 489.85 592.67 493.17 L 592.67 508.89 L 588.27 508.89 L 588.27 493.97 Z M 571.31 486.89 L 574.83 486.89 L 575.71 491.53 L 575.71 508.89 L 571.31 508.89 Z M 580.07 493.93 Q 580.07 492.25 579.67 491.45 Q 579.27 490.65 578.43 490.65 Q 577.55 490.65 576.79 491.47 Q 576.03 492.29 575.35 494.13 L 574.63 492.29 Q 575.55 489.49 576.99 487.99 Q 578.43 486.49 580.11 486.49 Q 581.91 486.49 582.91 488.19 Q 583.91 489.89 583.91 493.17 L 583.91 508.89 L 580.07 508.89 L 580.07 493.93 Z M 604.71 509.29 Q 601.43 509.29 599.69 507.67 Q 597.95 506.05 597.95 503.13 Q 597.95 499.21 601.27 497.19 Q 604.59 495.17 611.83 495.17 L 611.87 498.33 Q 607.07 498.33 604.97 499.27 Q 602.87 500.21 602.87 502.29 Q 602.87 503.61 603.69 504.35 Q 604.51 505.09 606.19 505.09 Q 607.79 505.09 608.99 504.43 Q 610.19 503.77 610.85 502.59 Q 611.51 501.41 611.51 499.89 L 611.51 494.81 Q 611.51 492.61 610.47 491.63 Q 609.43 490.65 607.15 490.65 Q 605.35 490.65 603.61 491.07 Q 601.87 491.49 599.99 492.45 L 599.99 488.21 Q 604.39 486.49 608.11 486.49 Q 611.99 486.49 614.13 488.47 Q 616.27 490.45 616.27 493.97 L 616.27 504.49 L 615.95 500.93 L 617.43 508.89 L 612.75 508.89 L 611.75 503.45 L 612.63 504.05 Q 611.51 506.69 609.55 507.99 Q 607.59 509.29 604.71 509.29 Z M 637.67 494.25 Q 637.67 492.33 636.91 491.45 Q 636.15 490.57 634.43 490.57 Q 632.63 490.57 631.17 491.69 Q 629.71 492.81 627.63 495.69 L 627.11 493.01 Q 628.75 489.85 631.03 488.17 Q 633.31 486.49 636.11 486.49 Q 639.11 486.49 640.77 488.29 Q 642.43 490.09 642.43 493.45 L 642.43 508.89 L 637.67 508.89 L 637.67 494.25 Z M 624.03 486.89 L 627.83 486.89 L 628.79 493.13 L 628.79 508.89 L 624.03 508.89 Z M 657.03 509.29 Q 653.11 509.29 650.97 506.35 Q 648.83 503.41 648.83 498.09 Q 648.83 492.57 650.97 489.53 Q 653.11 486.49 657.03 486.49 Q 659.47 486.49 661.25 487.73 Q 663.03 488.97 664.03 491.33 L 663.31 492.09 L 663.31 479.29 L 668.07 479.29 L 668.07 508.89 L 664.27 508.89 L 663.23 503.01 L 664.27 503.57 Q 663.35 506.37 661.49 507.83 Q 659.63 509.29 657.03 509.29 Z M 658.47 505.01 Q 661.11 505.01 662.21 503.43 Q 663.31 501.85 663.31 498.09 Q 663.31 494.13 662.21 492.45 Q 661.11 490.77 658.47 490.77 Q 655.91 490.77 654.83 492.35 Q 653.75 493.93 653.75 497.69 Q 653.75 501.65 654.83 503.33 Q 655.91 505.01 658.47 505.01 Z M 675.79 493.97 L 692.91 493.97 L 692.91 498.13 L 675.79 498.13 Z M 701.19 480.89 L 706.15 480.89 L 706.15 506.17 L 704.51 504.49 L 720.35 504.49 L 720.35 508.89 L 701.19 508.89 Z M 734.43 489.41 L 736.19 491.09 L 728.15 491.09 L 728.15 486.89 L 739.23 486.89 L 739.23 507.01 L 734.43 507.01 Z M 726.83 504.69 L 744.99 504.69 L 744.99 508.89 L 726.83 508.89 Z M 734.03 476.49 L 739.63 476.49 L 739.63 482.41 L 734.03 482.41 Z M 765.67 494.25 Q 765.67 492.33 764.91 491.45 Q 764.15 490.57 762.43 490.57 Q 760.63 490.57 759.17 491.69 Q 757.71 492.81 755.63 495.69 L 755.11 493.01 Q 756.75 489.85 759.03 488.17 Q 761.31 486.49 764.11 486.49 Q 767.11 486.49 768.77 488.29 Q 770.43 490.09 770.43 493.45 L 770.43 508.89 L 765.67 508.89 L 765.67 494.25 Z M 752.03 486.89 L 755.83 486.89 L 756.79 493.13 L 756.79 508.89 L 752.03 508.89 Z M 786.91 509.29 Q 782.03 509.29 779.45 506.53 Q 776.87 503.77 776.87 498.57 Q 776.87 492.93 779.61 489.71 Q 782.35 486.49 787.43 486.49 Q 792.07 486.49 794.39 489.27 Q 796.71 492.05 796.71 497.25 Q 796.71 498.69 796.59 499.65 L 780.19 499.65 L 780.19 496.05 L 793.47 496.05 L 791.83 497.77 Q 791.79 495.13 791.37 493.65 Q 790.95 492.17 789.93 491.47 Q 788.91 490.77 787.07 490.77 Q 784.23 490.77 783.01 492.41 Q 781.79 494.05 781.79 497.93 Q 781.79 501.77 783.13 503.39 Q 784.47 505.01 787.55 505.01 Q 789.35 505.01 791.37 504.51 Q 793.39 504.01 795.07 503.13 L 795.07 507.41 Q 793.31 508.33 791.13 508.81 Q 788.95 509.29 786.91 509.29 Z M 835.47 482.81 L 840.43 482.81 L 840.43 506.85 L 835.47 506.85 Z M 828.59 504.49 L 847.31 504.49 L 847.31 508.89 L 828.59 508.89 Z M 828.59 480.89 L 847.31 480.89 L 847.31 485.25 L 828.59 485.25 Z M 868.07 494.25 Q 868.07 492.33 867.31 491.45 Q 866.55 490.57 864.83 490.57 Q 863.03 490.57 861.57 491.69 Q 860.11 492.81 858.03 495.69 L 857.51 493.01 Q 859.15 489.85 861.43 488.17 Q 863.71 486.49 866.51 486.49 Q 869.51 486.49 871.17 488.29 Q 872.83 490.09 872.83 493.45 L 872.83 508.89 L 868.07 508.89 L 868.07 494.25 Z M 854.43 486.89 L 858.23 486.89 L 859.19 493.13 L 859.19 508.89 L 854.43 508.89 Z M 892.39 509.29 Q 888.19 509.29 886.05 507.11 Q 883.91 504.93 883.91 501.37 L 883.91 489.45 L 886.19 490.89 L 879.19 490.89 L 879.19 487.81 L 886.15 486.45 L 883.55 489.13 L 884.83 481.97 L 888.71 481.97 L 888.71 488.57 L 886.43 486.89 L 898.07 486.89 L 898.07 490.89 L 886.43 490.89 L 888.71 489.45 L 888.71 500.69 Q 888.71 502.93 889.73 503.93 Q 890.75 504.93 893.19 504.93 Q 895.67 504.93 898.07 503.97 L 898.07 508.25 Q 896.71 508.77 895.25 509.03 Q 893.79 509.29 892.39 509.29 Z M 914.91 509.29 Q 910.03 509.29 907.45 506.53 Q 904.87 503.77 904.87 498.57 Q 904.87 492.93 907.61 489.71 Q 910.35 486.49 915.43 486.49 Q 920.07 486.49 922.39 489.27 Q 924.71 492.05 924.71 497.25 Q 924.71 498.69 924.59 499.65 L 908.19 499.65 L 908.19 496.05 L 921.47 496.05 L 919.83 497.77 Q 919.79 495.13 919.37 493.65 Q 918.95 492.17 917.93 491.47 Q 916.91 490.77 915.07 490.77 Q 912.23 490.77 911.01 492.41 Q 909.79 494.05 909.79 497.93 Q 909.79 501.77 911.13 503.39 Q 912.47 505.01 915.55 505.01 Q 917.35 505.01 919.37 504.51 Q 921.39 504.01 923.07 503.13 L 923.07 507.41 Q 921.31 508.33 919.13 508.81 Q 916.95 509.29 914.91 509.29 Z M 936.07 489.41 L 937.71 491.09 L 931.75 491.09 L 931.75 486.89 L 939.87 486.89 L 940.83 492.49 L 940.83 506.61 L 936.07 506.61 Z M 930.47 504.69 L 949.03 504.69 L 949.03 508.89 L 930.47 508.89 Z M 939.63 492.57 Q 940.71 490.53 942.43 488.97 Q 944.15 487.41 946.21 486.53 Q 948.27 485.65 950.31 485.65 L 950.31 490.93 Q 947.19 490.93 944.67 491.91 Q 942.15 492.89 940.03 494.85 L 939.63 492.57 Z M 961.51 487.49 Q 961.51 484.41 962.97 482.51 Q 964.43 480.61 967.59 479.73 Q 970.75 478.85 975.95 478.85 L 975.95 483.05 Q 971.83 483.05 969.83 483.39 Q 967.83 483.73 967.05 484.67 Q 966.27 485.61 966.27 487.57 L 966.27 508.89 L 961.51 508.89 L 961.51 487.49 Z M 956.59 488.09 L 975.95 488.09 L 975.95 491.97 L 956.59 491.97 Z M 988.71 509.29 Q 985.43 509.29 983.69 507.67 Q 981.95 506.05 981.95 503.13 Q 981.95 499.21 985.27 497.19 Q 988.59 495.17 995.83 495.17 L 995.87 498.33 Q 991.07 498.33 988.97 499.27 Q 986.87 500.21 986.87 502.29 Q 986.87 503.61 987.69 504.35 Q 988.51 505.09 990.19 505.09 Q 991.79 505.09 992.99 504.43 Q 994.19 503.77 994.85 502.59 Q 995.51 501.41 995.51 499.89 L 995.51 494.81 Q 995.51 492.61 994.47 491.63 Q 993.43 490.65 991.15 490.65 Q 989.35 490.65 987.61 491.07 Q 985.87 491.49 983.99 492.45 L 983.99 488.21 Q 988.39 486.49 992.11 486.49 Q 995.99 486.49 998.13 488.47 Q 1000.27 490.45 1000.27 493.97 L 1000.27 504.49 L 999.95 500.93 L 1001.43 508.89 L 996.75 508.89 L 995.75 503.45 L 996.63 504.05 Q 995.51 506.69 993.55 507.99 Q 991.59 509.29 988.71 509.29 Z M 1017.67 509.29 Q 1012.71 509.29 1010.11 506.47 Q 1007.51 503.65 1007.51 498.49 Q 1007.51 492.77 1010.21 489.63 Q 1012.91 486.49 1017.87 486.49 Q 1020.67 486.49 1022.71 487.57 Q 1024.75 488.65 1025.83 490.65 Q 1026.91 492.65 1026.91 495.45 L 1022.11 495.45 Q 1022.11 492.93 1021.07 491.85 Q 1020.03 490.77 1017.67 490.77 Q 1015.75 490.77 1014.61 491.49 Q 1013.47 492.21 1012.95 493.75 Q 1012.43 495.29 1012.43 497.93 Q 1012.43 501.73 1013.71 503.33 Q 1014.99 504.93 1018.03 504.93 Q 1019.99 504.93 1021.91 504.35 Q 1023.83 503.77 1025.63 502.61 L 1025.63 507.09 Q 1022.03 509.29 1017.67 509.29 Z M 1042.91 509.29 Q 1038.03 509.29 1035.45 506.53 Q 1032.87 503.77 1032.87 498.57 Q 1032.87 492.93 1035.61 489.71 Q 1038.35 486.49 1043.43 486.49 Q 1048.07 486.49 1050.39 489.27 Q 1052.71 492.05 1052.71 497.25 Q 1052.71 498.69 1052.59 499.65 L 1036.19 499.65 L 1036.19 496.05 L 1049.47 496.05 L 1047.83 497.77 Q 1047.79 495.13 1047.37 493.65 Q 1046.95 492.17 1045.93 491.47 Q 1044.91 490.77 1043.07 490.77 Q 1040.23 490.77 1039.01 492.41 Q 1037.79 494.05 1037.79 497.93 Q 1037.79 501.77 1039.13 503.39 Q 1040.47 505.01 1043.55 505.01 Q 1045.35 505.01 1047.37 504.51 Q 1049.39 504.01 1051.07 503.13 L 1051.07 507.41 Q 1049.31 508.33 1047.13 508.81 Q 1044.95 509.29 1042.91 509.29 Z" style="fill: rgb(91, 91, 91); text-wrap-mode: nowrap;"/></g></svg>